<?xml version="1.0" encoding="iso-8859-1"?>
<!-- Generator: Adobe Illustrator 17.1.0, SVG Export Plug-In . SVG Version: 6.00 Build 0)  -->
<!DOCTYPE svg PUBLIC "-//W3C//DTD SVG 1.1//EN" "http://www.w3.org/Graphics/SVG/1.1/DTD/svg11.dtd">
<svg version="1.1" id="Layer_1" xmlns="http://www.w3.org/2000/svg" xmlns:xlink="http://www.w3.org/1999/xlink" x="0px" y="0px"
	 viewBox="0 0 612 182.912" style="enable-background:new 0 0 612 182.912;" xml:space="preserve">
<path style="fill:#27374E;" d="M101.951,91.271c-0.201-49.721-40.704-90.11-90.468-90.11H0v180.588h11.483
	c49.765,0,90.267-40.39,90.468-90.109h0.009c0-0.062-0.006-0.124-0.006-0.185c0-0.062,0.006-0.122,0.006-0.184H101.951z
	 M22.966,157.806V25.104C54.683,30.561,78.9,58.223,78.99,91.455C78.9,124.688,54.683,152.35,22.966,157.806"/>
<polygon style="fill:#27374E;" points="612,16.212 595.734,0 534.815,61.105 534.815,1.163 511.849,1.163 511.849,181.749 
	534.815,181.749 534.815,121.804 595.734,182.912 612,166.696 536.988,91.455 "/>
<polygon style="fill:#27374E;" points="166.905,181.749 259.191,181.749 259.191,158.783 189.871,158.783 189.871,102.754 
	251.053,102.754 251.053,80.156 189.871,80.156 189.871,24.129 259.191,24.129 259.191,1.163 166.905,1.163 "/>
<path style="fill:#27374E;" d="M400.84,24.129c15.964,0,31.455,5.669,43.623,15.961l14.833-17.533
	C442.986,8.76,422.228,1.163,400.84,1.163c-49.757,0-90.258,40.342-90.54,90.034h-0.013c0,0.087,0.006,0.173,0.006,0.258
	c0,0.087-0.006,0.173-0.006,0.258h0.013c0.282,49.692,40.783,90.036,90.54,90.036c21.388,0,42.148-7.598,58.456-21.395
	l-14.833-17.533c-12.167,10.294-27.659,15.962-43.623,15.962c-37.181,0-67.439-30.18-67.58-67.328
	C333.401,54.307,363.659,24.129,400.84,24.129"/>
<g>
</g>
<g>
</g>
<g>
</g>
<g>
</g>
<g>
</g>
<g>
</g>
<g>
</g>
<g>
</g>
<g>
</g>
<g>
</g>
<g>
</g>
<g>
</g>
<g>
</g>
<g>
</g>
<g>
</g>
</svg>
