<?xml version="1.0" encoding="iso-8859-1"?>
<!-- Generator: Adobe Illustrator 17.1.0, SVG Export Plug-In . SVG Version: 6.00 Build 0)  -->
<!DOCTYPE svg PUBLIC "-//W3C//DTD SVG 1.1//EN" "http://www.w3.org/Graphics/SVG/1.1/DTD/svg11.dtd">
<svg version="1.1" id="Layer_2" xmlns="http://www.w3.org/2000/svg" xmlns:xlink="http://www.w3.org/1999/xlink" x="0px" y="0px"
	 viewBox="0 0 386.398 114.017" style="enable-background:new 0 0 386.398 114.017;" xml:space="preserve">
<path d="M64.369,56.892C64.242,25.5,38.67-0.001,7.25-0.001H0v114.018h7.25c31.42,0,56.992-25.501,57.119-56.892h0.006
	c0-0.039-0.004-0.078-0.004-0.117c0-0.039,0.004-0.077,0.004-0.116H64.369z M14.5,98.9V15.116
	c20.025,3.445,35.315,20.91,35.372,41.892C49.815,77.99,34.525,95.455,14.5,98.9"/>
<polygon points="386.398,9.502 376.128,-0.734 337.666,37.846 337.666,0 323.166,0 323.166,114.017 337.666,114.017 337.666,76.169 
	376.128,114.751 386.398,104.513 339.038,57.008 "/>
<polygon points="105.379,114.017 163.645,114.017 163.645,99.517 119.879,99.517 119.879,64.142 158.507,64.142 158.507,49.874 
	119.879,49.874 119.879,14.5 163.645,14.5 163.645,0 105.379,0 "/>
<path d="M253.078,14.5c10.079,0,19.86,3.579,27.542,10.077l9.365-11.07C279.688,4.797,266.582,0,253.078,0
	c-31.415,0-56.986,25.471-57.164,56.845h-0.008c0,0.055,0.004,0.109,0.004,0.163c0,0.055-0.004,0.109-0.004,0.163h0.008
	c0.178,31.374,25.749,56.846,57.164,56.846c13.504,0,26.611-4.797,36.907-13.508l-9.365-11.07
	c-7.682,6.499-17.463,10.078-27.542,10.078c-23.475,0-42.579-19.055-42.668-42.509C210.499,33.554,229.603,14.5,253.078,14.5"/>
</svg>
