<?xml version="1.0" encoding="iso-8859-1"?>
<!-- Generator: Adobe Illustrator 17.1.0, SVG Export Plug-In . SVG Version: 6.00 Build 0)  -->
<!DOCTYPE svg PUBLIC "-//W3C//DTD SVG 1.1//EN" "http://www.w3.org/Graphics/SVG/1.1/DTD/svg11.dtd">
<svg version="1.1" id="Layer_1" xmlns="http://www.w3.org/2000/svg" xmlns:xlink="http://www.w3.org/1999/xlink" x="0px" y="0px"
	 viewBox="0 0 386.398 115.486" style="enable-background:new 0 0 386.398 115.486;" xml:space="preserve">
<path d="M64.369,57.626C64.242,26.234,38.67,0.733,7.25,0.733H0v114.018h7.25c31.42,0,56.992-25.501,57.119-56.892h0.006
	c0-0.039-0.004-0.078-0.004-0.117s0.004-0.077,0.004-0.116H64.369z M14.5,99.634V15.85c20.025,3.445,35.315,20.91,35.372,41.892
	C49.815,78.724,34.525,96.19,14.5,99.634"/>
<polygon points="386.398,10.237 376.128,0 337.666,38.581 337.666,0.735 323.166,0.735 323.166,114.751 337.666,114.751 
	337.666,76.904 376.128,115.486 386.398,105.248 339.038,57.743 "/>
<polygon points="105.379,114.751 163.645,114.751 163.645,100.251 119.879,100.251 119.879,64.876 158.507,64.876 158.507,50.608 
	119.879,50.608 119.879,15.234 163.645,15.234 163.645,0.734 105.379,0.734 "/>
<path d="M253.078,15.234c10.079,0,19.86,3.579,27.542,10.077l9.365-11.07c-10.297-8.71-23.403-13.507-36.907-13.507
	c-31.415,0-56.986,25.471-57.164,56.845h-0.008c0,0.055,0.004,0.109,0.004,0.163c0,0.055-0.004,0.109-0.004,0.163h0.008
	c0.178,31.374,25.749,56.846,57.164,56.846c13.504,0,26.611-4.797,36.907-13.508l-9.365-11.07
	c-7.682,6.499-17.463,10.078-27.542,10.078c-23.475,0-42.579-19.055-42.668-42.509C210.499,34.289,229.603,15.234,253.078,15.234"/>
<g>
</g>
<g>
</g>
<g>
</g>
<g>
</g>
<g>
</g>
<g>
</g>
<g>
</g>
<g>
</g>
<g>
</g>
<g>
</g>
<g>
</g>
<g>
</g>
<g>
</g>
<g>
</g>
<g>
</g>
</svg>
